HIERARCHY
ROOT Hips
{
  OFFSET 5.84602e-005 68.8428 3.50346
  CHANNELS 6 Xposition Yposition Zposition Zrotation Xrotation Yrotation
  JOINT Spine
  {
    OFFSET 0 8.597 -4.6522
    CHANNELS 3 Zrotation Xrotation Yrotation
    JOINT Spine1
    {
      OFFSET 0 7.8454 0.4098
      CHANNELS 3 Zrotation Xrotation Yrotation
      JOINT Spine2
      {
        OFFSET 0 9.7078 -2.1609
        CHANNELS 3 Zrotation Xrotation Yrotation
        JOINT Neck
        {
          OFFSET 0 21.8761 -0.4549
          CHANNELS 3 Zrotation Xrotation Yrotation
          JOINT Head
          {
            OFFSET 0 12.3537 3.3602
            CHANNELS 3 Zrotation Xrotation Yrotation
            End Site
            {
              OFFSET 0.0001 18.9506 0.5657
            }
          }
        }
        JOINT LeftShoulder
        {
          OFFSET 2.2086 21.1115 7.2329
          CHANNELS 3 Zrotation Xrotation Yrotation
          JOINT LeftArm
          {
            OFFSET 13.1193 3.0282 -4.8998
            CHANNELS 3 Zrotation Xrotation Yrotation
            JOINT LeftForeArm
            {
              OFFSET 27.4081 -0.0973053 -0.2375
              CHANNELS 3 Zrotation Xrotation Yrotation
              JOINT LeftHand
              {
                OFFSET 22.8641 0.0662994 -0.1369
                CHANNELS 3 Zrotation Xrotation Yrotation
                JOINT LeftHandIndex1
                {
                  OFFSET 8.8614 0.775009 2.4612
                  CHANNELS 3 Zrotation Xrotation Yrotation
                  JOINT LeftHandIndex2
                  {
                    OFFSET 3.3146 -0.808304 0.5841
                    CHANNELS 3 Zrotation Xrotation Yrotation
                    JOINT LeftHandIndex3
                    {
                      OFFSET 2.2628 -0.552002 0.3989
                      CHANNELS 3 Zrotation Xrotation Yrotation
                      End Site
                      {
                        OFFSET 1.6102 -0.4807 0.2612
                      }
                    }
                  }
                }
                JOINT LeftHandMiddle1
                {
                  OFFSET 8.9937 0.895004 0.2143
                  CHANNELS 3 Zrotation Xrotation Yrotation
                  JOINT LeftHandMiddle2
                  {
                    OFFSET 4.0984 0.0113983 -0.0242
                    CHANNELS 3 Zrotation Xrotation Yrotation
                    JOINT LeftHandMiddle3
                    {
                      OFFSET 2.2716 0.00689697 -0.0138001
                      CHANNELS 3 Zrotation Xrotation Yrotation
                      End Site
                      {
                        OFFSET 2.0404 -0.1441 0.0027
                      }
                    }
                  }
                }
                JOINT LeftHandRing1
                {
                  OFFSET 8.5234 0.597198 -2.0164
                  CHANNELS 3 Zrotation Xrotation Yrotation
                  JOINT LeftHandRing2
                  {
                    OFFSET 3.7188 -0.188293 -0.2328
                    CHANNELS 3 Zrotation Xrotation Yrotation
                    JOINT LeftHandRing3
                    {
                      OFFSET 2.1191 -0.106598 -0.1332
                      CHANNELS 3 Zrotation Xrotation Yrotation
                      End Site
                      {
                        OFFSET 1.8737 -0.2304 -0.0886
                      }
                    }
                  }
                }
                JOINT LeftHandPinky1
                {
                  OFFSET 7.9094 -0.601089 -3.4825
                  CHANNELS 3 Zrotation Xrotation Yrotation
                  JOINT LeftHandPinky2
                  {
                    OFFSET 2.2874 -0.477005 -0.6314
                    CHANNELS 3 Zrotation Xrotation Yrotation
                    JOINT LeftHandPinky3
                    {
                      OFFSET 1.6774 -0.349396 -0.4633
                      CHANNELS 3 Zrotation Xrotation Yrotation
                      End Site
                      {
                        OFFSET 1.4888 -0.4091 -0.3416
                      }
                    }
                  }
                }
                JOINT LeftHandThumb1
                {
                  OFFSET 1.833 -1.3875 1.3896
                  CHANNELS 3 Zrotation Xrotation Yrotation
                  JOINT LeftHandThumb2
                  {
                    OFFSET 3.4129 -1.121 2.5732
                    CHANNELS 3 Zrotation Xrotation Yrotation
                    JOINT LeftHandThumb3
                    {
                      OFFSET 2.2474 -0.804199 1.6192
                      CHANNELS 3 Zrotation Xrotation Yrotation
                      End Site
                      {
                        OFFSET 1.6527 -0.5689 1.1317
                      }
                    }
                  }
                }
              }
            }
          }
        }
        JOINT RightShoulder
        {
          OFFSET -2.2086 21.1115 7.2329
          CHANNELS 3 Zrotation Xrotation Yrotation
          JOINT RightArm
          {
            OFFSET -13.1216 3.0287 -4.9007
            CHANNELS 3 Zrotation Xrotation Yrotation
            JOINT RightForeArm
            {
              OFFSET -27.4081 -0.0973053 -0.2375
              CHANNELS 3 Zrotation Xrotation Yrotation
              JOINT RightHand
              {
                OFFSET -22.8641 0.0664063 -0.1369
                CHANNELS 3 Zrotation Xrotation Yrotation
                JOINT RightHandIndex1
                {
                  OFFSET -8.8614 0.774994 2.4612
                  CHANNELS 3 Zrotation Xrotation Yrotation
                  JOINT RightHandIndex2
                  {
                    OFFSET -3.3146 -0.808304 0.5841
                    CHANNELS 3 Zrotation Xrotation Yrotation
                    JOINT RightHandIndex3
                    {
                      OFFSET -2.2628 -0.552002 0.3989
                      CHANNELS 3 Zrotation Xrotation Yrotation
                      End Site
                      {
                        OFFSET -1.6102 -0.4807 0.2612
                      }
                    }
                  }
                }
                JOINT RightHandMiddle1
                {
                  OFFSET -8.9937 0.894989 0.2143
                  CHANNELS 3 Zrotation Xrotation Yrotation
                  JOINT RightHandMiddle2
                  {
                    OFFSET -4.0984 0.0113983 -0.0242
                    CHANNELS 3 Zrotation Xrotation Yrotation
                    JOINT RightHandMiddle3
                    {
                      OFFSET -2.2716 0.00691223 -0.0138001
                      CHANNELS 3 Zrotation Xrotation Yrotation
                      End Site
                      {
                        OFFSET -2.0404 -0.1441 0.0027
                      }
                    }
                  }
                }
                JOINT RightHandRing1
                {
                  OFFSET -8.5234 0.597198 -2.0164
                  CHANNELS 3 Zrotation Xrotation Yrotation
                  JOINT RightHandRing2
                  {
                    OFFSET -3.7188 -0.188309 -0.2328
                    CHANNELS 3 Zrotation Xrotation Yrotation
                    JOINT RightHandRing3
                    {
                      OFFSET -2.1191 -0.106598 -0.1332
                      CHANNELS 3 Zrotation Xrotation Yrotation
                      End Site
                      {
                        OFFSET -1.8737 -0.2304 -0.0886
                      }
                    }
                  }
                }
                JOINT RightHandPinky1
                {
                  OFFSET -7.9094 -0.601105 -3.4825
                  CHANNELS 3 Zrotation Xrotation Yrotation
                  JOINT RightHandPinky2
                  {
                    OFFSET -2.2874 -0.477005 -0.6314
                    CHANNELS 3 Zrotation Xrotation Yrotation
                    JOINT RightHandPinky3
                    {
                      OFFSET -1.6774 -0.349396 -0.4633
                      CHANNELS 3 Zrotation Xrotation Yrotation
                      End Site
                      {
                        OFFSET -1.4888 -0.4091 -0.3416
                      }
                    }
                  }
                }
                JOINT RightHandThumb1
                {
                  OFFSET -1.833 -1.38751 1.3896
                  CHANNELS 3 Zrotation Xrotation Yrotation
                  JOINT RightHandThumb2
                  {
                    OFFSET -3.41299 -1.12099 2.5732
                    CHANNELS 3 Zrotation Xrotation Yrotation
                    JOINT RightHandThumb3
                    {
                      OFFSET -2.24741 -0.804108 1.6192
                      CHANNELS 3 Zrotation Xrotation Yrotation
                      End Site
                      {
                        OFFSET -1.6527 -0.5689 1.1317
                      }
                    }
                  }
                }
              }
            }
          }
        }
      }
    }
  }
  JOINT RightUpLeg
  {
    OFFSET -9.1966 3.8861 -0.7581
    CHANNELS 3 Zrotation Xrotation Yrotation
    JOINT RightLeg
    {
      OFFSET -0.7359 -41.0265 0
      CHANNELS 3 Zrotation Xrotation Yrotation
      JOINT RightFoot
      {
        OFFSET 0 -40.2855 0
        CHANNELS 3 Zrotation Xrotation Yrotation
        JOINT RightToeBase
        {
          OFFSET 0 -5.6122 11.7359
          CHANNELS 3 Zrotation Xrotation Yrotation
          End Site
          {
            OFFSET 0 0 7.8731
          }
        }
      }
    }
  }
  JOINT LeftUpLeg
  {
    OFFSET 9.1965 3.8864 -0.7581
    CHANNELS 3 Zrotation Xrotation Yrotation
    JOINT LeftLeg
    {
      OFFSET 0.7359 -41.0268 0
      CHANNELS 3 Zrotation Xrotation Yrotation
      JOINT LeftFoot
      {
        OFFSET 0 -40.2855 0
        CHANNELS 3 Zrotation Xrotation Yrotation
        JOINT LeftToeBase
        {
          OFFSET 0 -5.6122 11.7359
          CHANNELS 3 Zrotation Xrotation Yrotation
          End Site
          {
            OFFSET 0 0 7.8731
          }
        }
      }
    }
  }
}
MOTION
Frames:	7
Frame Time:	0.0333333
5.84602e-005 68.8428 3.50346 0 0 -0 0 0 -0 0 0 -0 0 0 -0 0 0 -0 0 0 -0 0 0 -0 0 0 -0 0 0 -0 0 0 -0 0 0 -0 0 0 -0 0 0 -0 0 0 -0 -0.0146107 -8.87603e-005 -2.63497e-007 2.99804e-018 -2.42657e-020 -1.42182e-022 0 0 -0 -0.0187562 -0.001176 5.858e-005 5.06224e-018 3.88251e-019 1.21329e-020 0 0 -0 -0.012269 -0.00324817 0.000675346 -1.74678e-018 3.88251e-019 -0 0 0 -0 0 0 -0 0 0 -0 0 0 -0 0 0 -0 0 0 -0 0 0 -0 0 0 -0 0 0 -0 0 0 -0 0 0 -0 0.0149955 -9.10982e-005 2.64101e-007 -9.69331e-018 1.21329e-020 -4.7394e-023 0 0 -0 0.0189956 -0.00119102 -5.96516e-005 -5.41541e-019 0 2.42657e-020 0 0 -0 0.0122698 -0.00324857 -0.000673756 -2.00796e-019 0 -1.94126e-019 0 0 -0 0 0 -0 0 0 -0 3.39842 1.33031 -0.0637918 -5.65207e-008 0.834868 -0.000436188 -3.39935 -2.16518 -0.0642563 -8.89002e-024 -1.18485e-023 -1.48106e-024 -3.39844 1.35642 0.0640283 -3.18788e-007 0.782166 -0.000588827 3.39931 -2.13858 0.0634662 1.1399e-023 0 -0 
-0.614259 53.9714 4.29589 -0 -1.00193 -0 -0.625488 -1.3715 -0.247489 -1.25744 -2.74019 -0.510165 -1.25744 -2.74018 -0.510164 -2.5828e-005 -0.281665 -1.32239e-005 1.31846e-006 -0.575266 1.21493e-007 11.638 1.37948 -1.76305 -56.8956 0.367105 -12.6251 -20.8039 34.2793 -77.4239 -11.8906 -13.1099 21.7222 4.8629e-008 -3.84825e-008 -5.06049e-008 -9.72579e-008 7.69649e-008 1.0121e-007 9.72579e-008 -7.69649e-008 -1.0121e-007 4.8629e-008 -3.84825e-008 -5.06049e-008 -0.014605 -8.65952e-005 3.07061e-006 9.72579e-008 -7.6952e-008 -1.0122e-007 4.8629e-008 -3.84825e-008 -5.06049e-008 -0.0187363 -0.00117811 6.05969e-005 9.72569e-008 -7.69484e-008 -1.01223e-007 4.8629e-008 -3.84825e-008 -5.06049e-008 -0.0122618 -0.00324436 0.000675175 9.72547e-008 -7.69546e-008 -1.01221e-007 4.8629e-008 -3.84825e-008 -5.06049e-008 -9.72579e-008 7.69649e-008 1.0121e-007 9.72579e-008 -7.69649e-008 -1.0121e-007 -12.6793 0.92876 0.682011 56.7576 0.288128 13.5883 20.6211 33.0907 74.9835 16.3229 -12.8072 -18.6776 3.18055e-015 -1.59028e-015 -3.18055e-015 -2.56895e-007 -2.23372e-007 2.57325e-007 -1.28448e-007 -1.11686e-007 1.28663e-007 3.18055e-015 -1.59028e-015 -3.18055e-015 0.0150025 -9.067e-005 2.87143e-007 -1.28447e-007 -1.11669e-007 1.28677e-007 3.18055e-015 -1.59028e-015 -3.18055e-015 0.0189749 -0.00118335 -6.40527e-005 -1.28445e-007 -1.11665e-007 1.28682e-007 3.18055e-015 -1.59028e-015 -3.18055e-015 0.0122486 -0.00323917 -0.000676921 -1.28443e-007 -1.11673e-007 1.28678e-007 3.18055e-015 -1.59028e-015 -3.18055e-015 -2.56895e-007 -2.23372e-007 2.57325e-007 -1.28448e-007 -1.11686e-007 1.28663e-007 -122.84 -19.16 -172.445 -151.053 20.0385 108.359 3.39329 -10.6753 38.4077 -9.07012e-007 -2.05996e-007 -4.92217e-007 122.86 -19.1826 172.457 151.091 20.0392 -108.395 -3.3848 -10.6802 -38.3926 -2.42091e-007 -1.24859e-008 -3.34298e-006 
-0.61427 54.2237 4.47501 -0 -1.77807 -0 -0.628811 -0.934282 -0.243206 -1.26183 -1.86578 -0.496755 -1.26183 -1.86578 -0.496754 6.40286e-005 -0.55954 1.09211e-005 -4.43541e-007 -1.13857 -1.35785e-007 11.551 0.376599 -2.20808 -56.5072 0.201392 -12.8141 -20.7078 33.9212 -76.9979 -11.7018 -13.162 21.2063 -3.40439e-007 2.69758e-007 3.53911e-007 -1.62114e-008 1.28456e-008 1.68529e-008 -4.37707e-007 3.46832e-007 4.55029e-007 -3.40439e-007 2.69758e-007 3.53911e-007 -0.0145849 -8.76219e-005 -2.55692e-006 -4.37707e-007 3.46774e-007 4.55073e-007 -3.40439e-007 2.69758e-007 3.53911e-007 -0.0187797 -0.00118071 6.28862e-005 -4.37703e-007 3.46758e-007 4.5509e-007 -3.40439e-007 2.69758e-007 3.53911e-007 -0.0122884 -0.00325035 0.000676504 -4.37692e-007 3.46786e-007 4.55078e-007 -3.40439e-007 2.69758e-007 3.53911e-007 -1.62114e-008 1.28456e-008 1.68529e-008 -4.37707e-007 3.46832e-007 4.55029e-007 -12.5673 -0.042451 1.17843 56.3368 0.108445 13.7248 20.514 32.7561 74.6351 15.9899 -12.8805 -18.2103 6.36111e-015 -7.95139e-015 -3.18055e-015 -2.56833e-007 -2.23786e-007 2.57016e-007 -9.54166e-015 1.59028e-015 -6.36111e-015 6.36111e-015 -7.95139e-015 -3.18055e-015 0.0150066 -9.43477e-005 -5.65139e-006 6.36111e-015 -4.77083e-015 -0 6.36111e-015 -7.95139e-015 -3.18055e-015 0.019016 -0.00119447 -6.84259e-005 -3.18055e-015 -1.59028e-015 6.36111e-015 6.36111e-015 -7.95139e-015 -3.18055e-015 0.0122589 -0.00324261 -0.000677099 -6.36111e-015 0 1.59028e-015 6.36111e-015 -7.95139e-015 -3.18055e-015 -2.56833e-007 -2.23786e-007 2.57016e-007 -9.54166e-015 1.59028e-015 -6.36111e-015 -121.74 -18.8642 -171.386 -151.043 20.0444 108.376 2.865 -11.1242 39.0013 5.33512e-007 -1.0202e-006 3.52807e-006 121.758 -18.8869 171.396 151.081 20.0451 -108.413 -2.85675 -11.1291 -38.9882 -1.83667e-007 1.91614e-007 -3.30519e-006 
-0.614282 54.4772 4.65359 -0 -2.55479 -0 -0.631899 -0.490702 -0.23873 -1.26591 -0.978747 -0.482885 -1.26591 -0.978746 -0.482885 -3.38783e-005 -0.837936 -2.53589e-005 -1.5252e-007 -1.70279 -5.3181e-007 11.4559 -0.627323 -2.65534 -56.1192 0.03435 -13.002 -20.6087 33.5637 -76.5729 -11.5133 -13.2157 20.6903 6.15318e-007 4.84861e-007 1.27629e-006 -4.05267e-007 3.21531e-007 4.21044e-007 -7.45691e-007 5.91617e-007 7.7472e-007 6.15318e-007 4.84861e-007 1.27629e-006 -0.0146071 -8.16153e-005 -1.22849e-006 -7.45691e-007 5.91518e-007 7.74796e-007 6.15318e-007 4.84861e-007 1.27629e-006 -0.018736 -0.00117762 5.59641e-005 -7.45683e-007 5.91491e-007 7.74825e-007 6.15318e-007 4.84861e-007 1.27629e-006 -0.0122886 -0.00324646 0.000673474 -7.45666e-007 5.91538e-007 7.74805e-007 6.15318e-007 4.84861e-007 1.27629e-006 -4.05267e-007 3.21531e-007 4.21044e-007 -7.45691e-007 5.91617e-007 7.7472e-007 -12.4468 -1.01431 1.67745 55.9163 -0.0722773 13.86 20.4049 32.4219 74.2871 15.6574 -12.9566 -17.743 3.85115e-007 3.36215e-007 -3.85169e-007 3.85115e-007 3.36215e-007 -3.85169e-007 3.85115e-007 3.36215e-007 -3.85169e-007 3.85115e-007 3.36215e-007 -3.85169e-007 0.0149524 -9.11542e-005 -8.78213e-009 3.85113e-007 3.36165e-007 -3.85214e-007 3.85115e-007 3.36215e-007 -3.85169e-007 0.0189377 -0.00118494 -6.68049e-005 3.85108e-007 3.36151e-007 -3.85229e-007 3.85115e-007 3.36215e-007 -3.85169e-007 0.0122964 -0.00325584 -0.000680227 3.85101e-007 3.36176e-007 -3.85216e-007 3.85115e-007 3.36215e-007 -3.85169e-007 3.85115e-007 3.36215e-007 -3.85169e-007 3.85115e-007 3.36215e-007 -3.85169e-007 -120.647 -18.5483 -170.333 -151.033 20.0504 108.394 2.34023 -11.5774 39.5925 -3.16269e-006 -3.35998e-007 3.29653e-006 120.664 -18.5709 170.34 151.071 20.0511 -108.431 -2.33231 -11.5822 -39.5813 3.18055e-015 3.18055e-015 3.18055e-015 
-0.614293 54.7319 4.8316 -0 -3.332 -0 -0.634836 -0.0415834 -0.2341 -1.26983 -0.0805699 -0.468645 -1.26983 -0.0805682 -0.468645 0.000127105 -1.11642 3.84376e-005 -8.51437e-007 -2.26789 -6.50512e-008 11.3531 -1.6316 -3.10493 -55.7317 -0.133986 -13.1888 -20.5069 33.2065 -76.1487 -11.3251 -13.2711 20.1741 3.42713e-006 -1.00536e-006 7.5311e-007 -4.37614e-007 3.47607e-007 4.5453e-007 2.75535e-007 -2.18864e-007 -2.86185e-007 3.42713e-006 -1.00536e-006 7.5311e-007 -0.0146637 -8.97429e-005 1.11223e-006 2.75534e-007 -2.18827e-007 -2.86214e-007 3.42713e-006 -1.00536e-006 7.5311e-007 -0.0187731 -0.00117779 6.20927e-005 2.75532e-007 -2.18817e-007 -2.86224e-007 3.42713e-006 -1.00536e-006 7.5311e-007 -0.0123074 -0.00325698 0.000673493 2.75525e-007 -2.18835e-007 -2.86217e-007 3.42713e-006 -1.00536e-006 7.5311e-007 -4.37614e-007 3.47607e-007 4.5453e-007 2.75535e-007 -2.18864e-007 -2.86185e-007 -12.3174 -1.98621 2.17952 55.4962 -0.254035 13.994 20.2937 32.0882 73.9396 15.3253 -13.0353 -17.2759 8.98217e-007 7.85561e-007 -8.98139e-007 -2.56633e-007 -2.24446e-007 2.56611e-007 -2.56633e-007 -2.24446e-007 2.56611e-007 8.98217e-007 7.85561e-007 -8.98139e-007 0.0150063 -9.10099e-005 5.86523e-006 -2.56632e-007 -2.24412e-007 2.56641e-007 8.98217e-007 7.85561e-007 -8.98139e-007 0.0189202 -0.00119143 -5.9572e-005 -2.56629e-007 -2.24404e-007 2.56651e-007 8.98217e-007 7.85561e-007 -8.98139e-007 0.0122846 -0.00325866 -0.000683409 -2.56623e-007 -2.2442e-007 2.56643e-007 8.98217e-007 7.85561e-007 -8.98139e-007 -2.56633e-007 -2.24446e-007 2.56611e-007 -2.56633e-007 -2.24446e-007 2.56611e-007 -119.562 -18.2126 -169.286 -151.022 20.0566 108.413 1.81921 -12.0345 40.1811 5.84295e-008 -2.01794e-007 3.7498e-008 119.577 -18.2351 169.291 151.06 20.0573 -108.449 -1.81152 -12.0393 -40.1718 1.49773e-006 -8.7055e-007 -1.07836e-007 
-0.614304 54.9877 5.00897 -0 -4.10964 -0 -0.637507 0.412454 -0.229284 -1.27341 0.827427 -0.453983 -1.27341 0.827427 -0.453983 6.72162e-005 -1.3947 2.70359e-005 7.81704e-007 -2.83385 4.33767e-007 11.242 -2.63628 -3.55719 -55.3446 -0.303632 -13.3745 -20.4023 32.8499 -75.7253 -11.1374 -13.3282 19.6579 1.16725e-007 1.62353e-006 4.19049e-006 2.02544e-007 -1.61063e-007 -2.10382e-007 -9.39802e-007 7.4733e-007 9.76173e-007 1.16725e-007 1.62353e-006 4.19049e-006 -0.0145526 -8.87532e-005 -5.60987e-007 -9.39802e-007 7.47206e-007 9.76269e-007 1.16725e-007 1.62353e-006 4.19049e-006 -0.0187632 -0.00118172 6.62162e-005 -9.39792e-007 7.47171e-007 9.76305e-007 1.16725e-007 1.62353e-006 4.19049e-006 -0.0122898 -0.00325841 0.000678277 -9.3977e-007 7.47231e-007 9.7628e-007 1.16725e-007 1.62353e-006 4.19049e-006 2.02544e-007 -1.61063e-007 -2.10382e-007 -9.39802e-007 7.4733e-007 9.76173e-007 -12.1794 -2.95809 2.68462 55.0764 -0.436807 14.1266 20.1805 31.755 73.5925 14.9935 -13.1166 -16.8089 -2.56508e-007 -2.24695e-007 2.56504e-007 -5.13016e-007 -4.4939e-007 5.13009e-007 1.28254e-007 1.12348e-007 -1.28252e-007 -2.56508e-007 -2.24695e-007 2.56504e-007 0.0149986 -9.29224e-005 -9.14099e-007 1.28253e-007 1.12331e-007 -1.28267e-007 -2.56508e-007 -2.24695e-007 2.56504e-007 0.0189606 -0.00119528 -6.76959e-005 1.28252e-007 1.12327e-007 -1.28272e-007 -2.56508e-007 -2.24695e-007 2.56504e-007 0.0122614 -0.00324051 -0.000670414 1.28249e-007 1.12335e-007 -1.28268e-007 -2.56508e-007 -2.24695e-007 2.56504e-007 -5.13016e-007 -4.4939e-007 5.13009e-007 1.28254e-007 1.12348e-007 -1.28252e-007 -118.487 -17.8575 -168.245 -151.011 20.0629 108.432 1.3019 -12.4953 40.767 -1.3799e-006 -1.275e-006 1.83151e-007 118.5 -17.8798 168.248 151.049 20.0635 -108.468 -1.29448 -12.5002 -40.7596 3.22968e-006 1.07371e-006 -1.63843e-006 
-0.614315 55.2446 5.18567 -0 -4.88765 -0 -0.639963 0.870614 -0.224312 -1.27673 1.7437 -0.43896 -1.27673 1.7437 -0.43896 5.2646e-005 -1.6737 2.86441e-005 9.5003e-007 -3.40065 2.40273e-007 11.1227 -3.64097 -4.01225 -54.9581 -0.474543 -13.559 -20.295 32.4939 -75.3027 -10.9502 -13.387 19.1416 -3.05734e-007 2.43361e-007 3.17661e-007 -3.67477e-006 1.20909e-006 -4.93432e-007 -1.98423e-007 1.57943e-007 2.06164e-007 -3.05734e-007 2.43361e-007 3.17661e-007 -0.0145749 -8.62137e-005 -6.45791e-007 -1.98423e-007 1.57917e-007 2.06184e-007 -3.05734e-007 2.43361e-007 3.17661e-007 -0.0187272 -0.0011681 6.08761e-005 -1.98421e-007 1.57909e-007 2.06192e-007 -3.05734e-007 2.43361e-007 3.17661e-007 -0.0122593 -0.00324585 0.000677993 -1.98416e-007 1.57922e-007 2.06186e-007 -3.05734e-007 2.43361e-007 3.17661e-007 -3.67477e-006 1.20909e-006 -4.93432e-007 -1.98423e-007 1.57943e-007 2.06164e-007 -12.0325 -3.92961 3.19306 54.6569 -0.620581 14.2578 20.0654 31.4223 73.2459 14.6623 -13.2006 -16.3421 1.22053e-006 6.51322e-007 -2.11979e-007 -1.28187e-006 -1.12446e-006 1.28226e-006 -2.56374e-007 -2.24891e-007 2.56453e-007 1.22053e-006 6.51322e-007 -2.11979e-007 0.0149736 -9.24871e-005 3.84851e-006 -7.09322e-007 -2.01569e-007 -3.009e-007 1.22053e-006 6.51322e-007 -2.11979e-007 0.018991 -0.00119706 -5.6363e-005 -2.56369e-007 -2.24849e-007 2.56493e-007 1.22053e-006 6.51322e-007 -2.11979e-007 0.012288 -0.00325468 -0.000677995 -2.56364e-007 -2.24866e-007 2.56484e-007 1.22053e-006 6.51322e-007 -2.11979e-007 -1.28187e-006 -1.12446e-006 1.28226e-006 -2.56374e-007 -2.24891e-007 2.56453e-007 -117.421 -17.4833 -167.213 -151 20.0692 108.451 0.788353 -12.9598 41.3502 -1.25706e-006 -8.70867e-007 3.44822e-006 117.433 -17.5054 167.213 151.038 20.07 -108.488 -0.781272 -12.9647 -41.3448 1.78911e-006 1.37131e-007 8.20885e-008 
